<?xml version="1.0" encoding="UTF-8"?>
<!DOCTYPE svg PUBLIC "-//W3C//DTD SVG 1.1//EN" "http://www.w3.org/Graphics/SVG/1.1/DTD/svg11.dtd">
<!-- Creator: CorelDRAW 2019 (64-Bit) -->
<svg xmlns="http://www.w3.org/2000/svg" xml:space="preserve" width="855px" height="480px" version="1.1" style="shape-rendering:geometricPrecision; text-rendering:geometricPrecision; image-rendering:optimizeQuality; fill-rule:evenodd; clip-rule:evenodd"
viewBox="0 0 855 480.27"
 xmlns:xlink="http://www.w3.org/1999/xlink"
 xmlns:xodm="http://www.corel.com/coreldraw/odm/2003">
 <defs>
  <style type="text/css">
   <![CDATA[
    .fil3 {fill:#1496D7}
    .fil2 {fill:#1A325B}
    .fil1 {fill:#1B3255}
    .fil0 {fill:#FAB105}
   ]]>
  </style>
 </defs>
 <g id="Layer_x0020_1">
  <metadata id="CorelCorpID_0Corel-Layer"/>
  <path class="fil0" d="M564.76 89.71c-7.17,50.03 4.96,90.13 34.66,133.13 43.7,63.29 141.15,85.93 208.75,56.73 7.51,-3.25 11.96,-8.09 13.25,-11.06 0.8,-1.86 1.02,-3.97 0.63,-5.96 -0.62,-3.19 -5.14,-8.39 -8.04,-9.98 -7.93,-4.36 -15.91,-6.54 -23.54,-6.96 -9.83,-0.55 -49.73,-0.14 -49.73,-13.64l0 -1.52c0,-8.63 21.29,-25.01 26.94,-29.44 25.45,-19.97 58.96,-42.43 79.35,-64.98 2.02,-2.25 8.74,-10.98 7.9,-17.14 0,-7.49 -7.04,-10.83 -16.41,-9.22 -14.67,2.52 -24.21,5.93 -37.09,12.88 -6.87,3.7 -39.85,21.16 -45.38,23.52 -8.47,3.61 -15.46,2.65 -12.31,-7.96 2.69,-9.05 13.75,-28.53 25.25,-45.19 11.58,-16.78 20.73,-33.36 24.13,-41.83 2.22,-5.55 5.84,-24.72 -5.21,-25.77 -9.25,-0.21 -15.96,4.88 -22.91,9.99 -20.62,15.14 -58.57,63.42 -72.8,70.1 -3.62,1.71 -6.34,-1.12 -6.77,-3.99 -0.7,-4.59 0,-11.05 0.18,-13.42 1.89,-18.73 5.77,-35.8 6.99,-54.43 0.45,-6.8 1.26,-13.32 0.94,-20.09 0,-3.89 -3.57,-13.06 -10.72,-13.48 -12.61,0.21 -19.87,18.05 -25.94,29.25 -5.79,10.69 -11.8,29.72 -21.09,47.74 -4.86,9.43 -9.1,20.89 -17.97,25.78 -2.81,1.56 -6.16,0.66 -7.39,-2.62 -5.98,-15.98 -3.33,-27.93 -5.76,-41.26 -0.75,-4.36 -1.96,-9.05 -3.84,-14.14 -2.46,-6.72 -11.93,-11.2 -19.71,-0.1 -1.55,2.21 -2.55,3.42 -4.15,7.07 -5.53,14.22 -10.3,24.67 -12.21,37.99z"/>
  <path class="fil1" d="M284.76 278.65c21.24,0 38.46,17.22 38.46,38.46 0,21.23 -17.22,38.45 -38.46,38.45 -21.23,0 -38.45,-17.22 -38.45,-38.45 0,-21.24 17.22,-38.46 38.45,-38.46zm0 13.61c13.72,0 24.85,11.13 24.85,24.85 0,13.72 -11.13,24.84 -24.85,24.84 -13.72,0 -24.84,-11.12 -24.84,-24.84 0,-13.72 11.12,-24.85 24.84,-24.85z"/>
  <path class="fil2" d="M6.3 270.18c0.12,0.08 -0.01,0.01 0.04,0.01l27.18 -0.04 0 77.7c0,0.79 0.14,1.3 0.37,1.62 0.84,3.02 3.6,5.23 6.88,5.23 3.94,0 7.14,-3.19 7.14,-7.13 0,-0.18 0,-0.35 -0.02,-0.52l0.07 -0.08c-0.01,-5.33 0.04,-15.12 0.04,-20.45 0,-10.67 0,-21.33 0,-32l-0.15 -24.51 20.74 0.01 4.66 0.04c0.47,0.01 0.88,0 1.24,-0.02 0.17,0.02 0.34,0.02 0.51,0.02 3.96,0 7.18,-3.22 7.18,-7.18 0,-3.78 -2.92,-6.88 -6.62,-7.16l-0.05 -0.03 -68.67 -0.02c-0.36,0 -0.66,0.04 -0.91,0.12 -3.37,0.59 -5.93,3.54 -5.93,7.07 0,3.54 2.95,6.71 6.3,7.32z"/>
  <path class="fil1" d="M156.89 251.76c3.66,0 6.68,2.76 7.09,6.32l0.01 0 0 0.03c0.02,0.26 0.04,0.52 0.04,0.79 0,0.27 -0.02,0.53 -0.04,0.79l0 87.09c0.02,0.26 0.04,0.52 0.04,0.79 0,3.94 -3.2,7.13 -7.14,7.13 -3.94,0 -7.14,-3.19 -7.14,-7.13 0,-0.17 0.01,-0.33 0.02,-0.49l0 -87.69c-0.01,-0.16 -0.02,-0.32 -0.02,-0.49 0,-0.16 0.01,-0.33 0.02,-0.49l0 -0.33 0.03 0c0.41,-3.56 3.43,-6.32 7.09,-6.32z"/>
  <path class="fil1" d="M186.96 251.76c3.66,0 6.68,2.76 7.09,6.32l0 0 0 0.03c0.03,0.26 0.05,0.52 0.05,0.79 0,0.27 -0.02,0.53 -0.05,0.79l0 87.09c0.03,0.26 0.05,0.52 0.05,0.79 0,3.94 -3.2,7.13 -7.14,7.13 -3.94,0 -7.14,-3.19 -7.14,-7.13 0,-0.17 0.01,-0.33 0.02,-0.49l0 -87.69c-0.01,-0.16 -0.02,-0.32 -0.02,-0.49 0,-0.16 0.01,-0.33 0.02,-0.49l0 -0.33 0.03 0c0.41,-3.56 3.43,-6.32 7.09,-6.32z"/>
  <path class="fil1" d="M187.28 251.76c3.66,0 6.68,2.76 7.09,6.32l0 0 0 0.03c0.03,0.26 0.04,0.52 0.04,0.79 0,0.27 -0.01,0.53 -0.04,0.79l0 55.71 36.89 -32.88c0.11,-0.12 0.23,-0.23 0.35,-0.34 0.12,-0.11 0.25,-0.21 0.37,-0.31l0.25 -0.22 0.03 0.02c2.92,-2.06 6.99,-1.64 9.43,1.09 2.43,2.74 2.38,6.83 0,9.5l0 0 -0.02 0.02c-0.18,0.19 -0.36,0.38 -0.56,0.56 -0.2,0.18 -0.41,0.34 -0.62,0.49l-22.81 20.33 24.14 28.97c0.12,0.12 0.22,0.24 0.33,0.37 0.1,0.12 0.2,0.25 0.3,0.38l0.21 0.26 -0.02 0.02c1.96,2.99 1.41,7.05 -1.41,9.39 -2.81,2.34 -6.89,2.16 -9.49,-0.31l0 0 -0.02 -0.02c-0.19,-0.19 -0.37,-0.38 -0.54,-0.58 -0.17,-0.21 -0.33,-0.42 -0.47,-0.64l-23.65 -28.37 -12.69 11.31 0 12.34c0.03,0.26 0.04,0.52 0.04,0.79 0,3.94 -3.19,7.13 -7.13,7.13 -3.94,0 -7.14,-3.19 -7.14,-7.13 0,-0.17 0,-0.33 0.02,-0.49l0 -87.69c-0.02,-0.16 -0.02,-0.32 -0.02,-0.49 0,-0.16 0,-0.33 0.02,-0.49l0 -0.33 0.03 0c0.4,-3.56 3.42,-6.32 7.09,-6.32z"/>
  <path class="fil1" d="M348.04 326.85l0 19.93c0.03,0.26 0.04,0.52 0.04,0.79 0,3.94 -3.2,7.13 -7.14,7.13 -3.94,0 -7.13,-3.19 -7.13,-7.13 0,-0.17 0,-0.33 0.01,-0.49l0 -20.23 0 -19.4 0 -20.22c-0.01,-0.16 -0.01,-0.33 -0.01,-0.49 0,-3.94 3.19,-7.14 7.13,-7.14 3.77,0 6.86,2.92 7.12,6.62 5.2,-4.7 12.09,-7.57 19.65,-7.57 10.17,0 19.12,5.19 24.37,13.06 5.25,-7.87 14.2,-13.06 24.37,-13.06 16.11,0 29.19,13.03 29.28,29.12l-0.05 39.01c0.03,0.26 0.05,0.52 0.05,0.79 0,3.94 -3.2,7.13 -7.14,7.13 -3.94,0 -7.14,-3.19 -7.14,-7.13 0,-0.17 0.01,-0.33 0.02,-0.49l-0.01 -39.33c-0.33,-8.97 -7.86,-16.12 -16.91,-16.12 -9.05,0 -17.26,7.01 -17.59,15.98l-0.02 39.17c0.03,0.26 0.04,0.52 0.04,0.79 0,3.94 -3.19,7.13 -7.13,7.13 -3.95,0 -7.14,-3.19 -7.14,-7.13 0,-0.17 0,-0.33 0.01,-0.49l0 -39.31 -0.15 0c-0.33,-8.97 -7.71,-16.14 -16.76,-16.14 -9.05,0 -17.44,7.17 -17.78,16.14l0.01 19.08z"/>
  <path class="fil3" d="M578.6 433.78l0 18.73 0 19.24c0.03,0.26 0.05,0.51 0.05,0.77 0,3.8 -3.09,6.89 -6.9,6.89 -3.8,0 -6.89,-3.09 -6.89,-6.89 0,-0.16 0.01,-0.32 0.02,-0.47l0 -19.54 0 -18.73 0 -19.53c-0.01,-0.16 -0.02,-0.31 -0.02,-0.47 0,-3.81 3.09,-6.89 6.89,-6.89 3.81,0 6.9,3.08 6.9,6.89 0,0.25 -0.02,0.51 -0.05,0.76l0 19.24z"/>
  <path class="fil3" d="M301.06 406.21c20.45,0 37.04,16.58 37.04,37.03 0,20.45 -16.59,37.03 -37.04,37.03 -20.44,0 -37.03,-16.58 -37.03,-37.03 0,-20.45 16.59,-37.03 37.03,-37.03zm0 13.1c13.22,0 23.93,10.72 23.93,23.93 0,13.21 -10.71,23.92 -23.93,23.92 -13.21,0 -23.92,-10.71 -23.92,-23.92 0,-13.21 10.71,-23.93 23.92,-23.93z"/>
  <path class="fil3" d="M80.73 383.58c3.4,0 6.2,2.56 6.58,5.86l0 0 0 0.03c0.03,0.24 0.04,0.48 0.04,0.73 0,0.25 -0.01,0.49 -0.04,0.73l0 80.81c0.03,0.24 0.04,0.48 0.04,0.73 0,3.66 -2.96,6.62 -6.62,6.62 -3.66,0 -6.62,-2.96 -6.62,-6.62 0,-0.15 0,-0.3 0.01,-0.45l0 -81.37c-0.01,-0.15 -0.01,-0.3 -0.01,-0.45 0,-0.15 0,-0.31 0.01,-0.46l0 -0.3 0.03 0c0.38,-3.3 3.18,-5.86 6.58,-5.86z"/>
  <path class="fil3" d="M245.95 378.04c3.4,0 6.2,2.71 6.58,6.2l0 0 0 0.03c0.03,0.25 0.04,0.51 0.04,0.77 0,0.27 -0.01,0.52 -0.04,0.78l0 85.49c0.03,0.26 0.04,0.51 0.04,0.78 0,3.87 -2.96,7 -6.62,7 -3.66,0 -6.62,-3.13 -6.62,-7 0,-0.16 0,-0.32 0.01,-0.48l0 -2.72c-6.45,6.31 -15.27,10.2 -25,10.2 -19.75,0 -35.77,-16.01 -35.77,-35.76 0,-19.75 16.02,-35.77 35.77,-35.77 9.73,0 18.55,3.89 25,10.2l0 -32.24c-0.01,-0.16 -0.01,-0.32 -0.01,-0.48 0,-0.16 0,-0.32 0.01,-0.48l0 -0.32 0.03 0c0.38,-3.49 3.18,-6.2 6.58,-6.2zm-6.61 71.2c0.74,-3.94 0.74,-7.88 0,-11.83 -2.64,-10.62 -12.25,-18.5 -23.69,-18.5 -13.48,0 -24.42,10.94 -24.42,24.42 0,13.48 10.94,24.41 24.42,24.41 11.44,0 21.05,-7.87 23.69,-18.5z"/>
  <path class="fil3" d="M168.97 471.74c0.03,0.24 0.04,0.48 0.04,0.73 0,3.66 -2.96,6.62 -6.62,6.62 -3.66,0 -6.62,-2.96 -6.62,-6.62 0,-0.15 0,-0.3 0.01,-0.45l0.01 -40.17c-2.51,-7.89 -9.51,-13.62 -18.24,-13.62 -8.72,0 -16.83,5.84 -19.22,13.95l0 10.43 0 29.13c0.03,0.24 0.04,0.48 0.04,0.73 0,3.66 -2.96,6.62 -6.62,6.62 -3.66,0 -6.62,-2.96 -6.62,-6.62 0,-0.15 0,-0.3 0.01,-0.45l0 -29.41 0 -24.06 0 -4.48c-0.01,-0.15 -0.01,-0.3 -0.01,-0.45 0,-0.15 0,-0.3 0.01,-0.45l0 -0.31 0.03 0c0.38,-3.3 3.18,-5.86 6.58,-5.86 3.4,0 6.2,2.56 6.58,5.86l0 0 0 0.03c0.03,0.24 0.04,0.48 0.04,0.73 0,0.25 -0.01,0.49 -0.04,0.73l0 1.63c5.26,-6.17 10.04,-10.09 22,-10.09 11.95,0 27.49,11.43 28.64,25.95l0 39.9z"/>
  <path class="fil1" d="M103.64 279.04c19.79,0 35.78,15.72 35.78,36.61 0.4,3.88 -3.23,7.04 -7.74,6.75l-50.22 0.05c2.04,11.71 14.84,20.99 25.45,20.02 8.17,-0.74 14.68,-3.68 19.35,-8.54 6.37,-2.48 11.77,1.95 8.29,9.86 -7.08,6.74 -16.8,10.91 -27.54,10.91 -0.57,0 -3.04,0.02 -4.21,-0.01 -19.4,-0.48 -34.99,-17.23 -34.99,-37.82 0,-20.89 16.05,-37.83 35.83,-37.83zm-22.22 31.82l43.18 0c-2.21,-11.58 -11.04,-20.23 -21.59,-20.23 -10.55,0 -19.38,8.65 -21.59,20.23z"/>
  <path class="fil3" d="M457.57 407.26c18.75,0 33.92,15.17 33.92,35.32 0.38,3.75 -3.07,6.8 -7.33,6.52l-47.63 0.05c1.94,11.3 14.08,20.25 24.14,19.32 7.74,-0.72 13.92,-3.55 18.34,-8.24 6.04,-2.4 11.16,1.87 7.86,9.51 -6.71,6.5 -15.93,10.52 -26.11,10.52 -0.54,0 -2.88,0.02 -3.99,-0.01 -18.39,-0.45 -33.17,-16.62 -33.17,-36.49 0,-20.16 15.21,-36.5 33.97,-36.5zm-21.07 30.71l40.94 0c-2.1,-11.18 -10.47,-19.53 -20.47,-19.53 -10.01,0 -18.37,8.35 -20.47,19.53z"/>
  <path class="fil3" d="M413.67 472.92c0.03,0.24 0.04,0.48 0.04,0.73 0,3.65 -2.97,6.62 -6.62,6.62 -3.66,0 -6.63,-2.97 -6.63,-6.62 0,-0.15 0.01,-0.3 0.02,-0.46l0.01 -40.16c-2.52,-7.89 -9.51,-13.62 -18.25,-13.62 -8.71,0 -16.82,5.84 -19.21,13.94l0 10.43 0 29.14c0.02,0.24 0.04,0.48 0.04,0.73 0,3.65 -2.97,6.62 -6.63,6.62 -3.65,0 -6.62,-2.97 -6.62,-6.62 0,-0.15 0.01,-0.3 0.02,-0.46l0 -29.41 0 -24.05 0 -4.48c-0.01,-0.15 -0.02,-0.3 -0.02,-0.45 0,-0.16 0.01,-0.31 0.02,-0.46l0 -0.31 0.02 0c0.38,-3.29 3.19,-5.86 6.58,-5.86 3.4,0 6.21,2.57 6.58,5.86l0.01 0 0 0.03c0.02,0.25 0.04,0.49 0.04,0.74 0,0.25 -0.02,0.49 -0.04,0.73l0 1.62c5.26,-6.16 10.04,-10.08 21.99,-10.08 11.96,0 27.5,11.43 28.65,25.95l0 39.9z"/>
  <path class="fil3" d="M501.46 424.54l-0.17 3.08c0.73,15.56 16.86,17.2 28.18,21.32 3.33,1.21 12.37,3.35 12.61,8.46 0.12,2.66 0.14,5.4 -3.5,8.3 -9.47,7.52 -28.56,-2.54 -31.36,-4.84 -6.77,-3.52 -10.66,3.22 -7.79,8.37 2.42,4.6 15.98,9.65 26.93,10.18l3.33 0c7.33,0 13.98,-3.53 16.74,-5.9 2.69,-2.3 7.74,-7.6 7.74,-11.78l0 -4.01c0,-10.03 -8.35,-15.89 -15.67,-18.57l-12.14 -3.86c-6.68,-1.41 -11.87,-4.41 -12.56,-8.38l-0.05 -1.73c0.81,-4.87 7.1,-7.74 11.19,-7.74l4.62 0c2.13,0 9.76,1.68 15.85,5.18 1.25,0.9 5.19,0.21 6.6,-1.76 1.02,-1.42 0.82,-4.02 0.19,-5.29 -3.05,-5.9 -18.33,-9.21 -23.34,-9.24 -1.96,-0.17 -3.48,-0.11 -5.31,-0.05 -4.54,0 -11.95,2.9 -15,5.57 -3.53,3.08 -7,9.46 -7.09,12.69z"/>
  <path class="fil3" d="M651.39 441.17l0 9.92 0 19.25c0.03,0.25 0.04,0.5 0.04,0.76 0,3.8 -2.68,6.89 -5.98,6.89 -3.12,0 -5.69,-2.77 -5.95,-6.3l-0.11 0.29c-0.45,-0.48 -0.75,-1.59 -1.52,-1.28 -6.01,5.79 -13.07,8.37 -20.76,8.69 -5.68,0.24 -19.18,-2.01 -24.92,-9.79 -1.59,-1.8 -3.77,-6.68 -4.12,-8.81 -0.53,-3.2 -0.39,-6.33 0.39,-9.52 0.59,-2.46 1.96,-4.89 3.67,-7.39 5.09,-5.66 10.48,-8.91 17.31,-10.14 9.35,-1.7 20.57,0.01 29.8,1.08 -0.08,-10.68 -6.39,-15.91 -17.29,-16.86 -8.27,-0.72 -15.13,1.16 -21.18,4 -7.18,1.39 -8.79,-8.03 -4.21,-10.32 9.8,-4.66 18.21,-5.75 27.5,-5.27 17.96,0.92 27.04,12.69 27.61,26.54 0.15,3.65 -0.11,4.44 -0.11,7.81l-0.17 0.45zm-12.01 4.62l0 5.67c0.63,9.17 -8.26,14.77 -13.76,16.06 -5.54,1.31 -9.66,1.27 -15.22,0 -3.48,-0.79 -6.66,-3.29 -8.72,-6.19 -1.37,-1.94 -0.91,-7.8 0.84,-10.71 4.8,-7.98 20.32,-8.56 36.86,-4.83z"/>
  <path class="fil3" d="M605.51 126.24c63.29,0 114.62,50.47 114.62,112.7 0,62.24 -51.33,112.71 -114.62,112.71 -63.3,0 -114.63,-50.47 -114.63,-112.71 0,-62.23 51.33,-112.7 114.63,-112.7zm-6.97 36.5c40.16,0 72.72,32.02 72.72,71.51 0,39.49 -32.56,71.51 -72.72,71.51 -40.16,0 -72.73,-32.02 -72.73,-71.51 0,-39.49 32.57,-71.51 72.73,-71.51z"/>
  <path class="fil1" d="M605.51 126.24c63.29,0 114.62,50.47 114.62,112.7 0,17.93 -4.27,34.88 -11.85,49.93 -16.82,-3.13 -33.31,-8.45 -48.62,-15.86 7.34,-11.17 11.61,-24.47 11.61,-38.76 0,-39.49 -32.57,-71.51 -72.73,-71.51 -9.74,0 -19.03,1.89 -27.52,5.31 -3.7,-11.11 -6.17,-22.38 -7.39,-34.05 12.97,-5.01 27.1,-7.76 41.88,-7.76z"/>
 </g>
</svg>
